<svg width="72" height="27" viewBox="0 0 72 27" fill="none" xmlns="http://www.w3.org/2000/svg">
<path d="M71.8719 0.374878L19.3848 23.7391C15.0323 25.6643 11.3763 26.63 8.41985 26.63C5.07177 26.63 2.64142 25.4049 1.13479 22.9516C0.18716 21.3765 -0.0908499 19.3794 0.297766 16.9574C0.686383 14.5353 1.7207 11.957 3.39474 9.21305C4.79077 6.99413 7.07763 4.07828 10.2613 0.462384C9.18143 2.2396 8.38957 4.19097 7.91764 6.23782C7.08062 9.97248 7.83393 12.7133 10.1776 14.4634C11.2926 15.2791 12.8262 15.6885 14.7812 15.6885C16.3416 15.6885 18.0994 15.426 20.0544 14.901L71.8719 0.374878Z" fill="#121212"/>
</svg>
