<svg width="24" height="24" fill="none" xmlns="http://www.w3.org/2000/svg"><path fill-rule="evenodd" clip-rule="evenodd" d="M7.25 7.25v-.11988c0-2.16774 1.46761-4.06048 3.5671-4.60033.776-.19955 1.5898-.19955 2.3658 0 2.0995.53985 3.5671 2.43259 3.5671 4.60034V7.25h1.5011c.5713 0 1.0561.41898 1.139.98423l.2186 1.49245c.4306 2.93842.4306 5.92402 0 8.86242-.2079 1.419-1.3522 2.5161-2.7787 2.664l-.6289.0652c-2.7932.2897-5.609.2897-8.40223 0L7.17 21.2531c-1.42654-.1479-2.57083-1.245-2.77875-2.664-.43054-2.9384-.43054-5.924 0-8.86242l.21868-1.49245c.08282-.56525.56766-.98423 1.13894-.98423H7.25Zm3.9406-3.26748c.531-.13653 1.0878-.13653 1.6188 0 1.4364.36938 2.4406 1.66441 2.4406 3.14761V7.25h-6.5v-.11988c0-1.48319 1.00415-2.77822 2.4406-3.1476ZM7.25 8.75V11c0 .4142.33579.75.75.75s.75-.3358.75-.75V8.75h6.5V11c0 .4142.3358.75.75.75s.75-.3358.75-.75V8.75h1.1996l.175 1.19414c.4094 2.79426.4094 5.63326 0 8.42756-.1085.7401-.7053 1.3123-1.4493 1.3894l-.6289.0653c-2.6904.279-5.4024.279-8.09281 0l-.62887-.0653c-.74404-.0771-1.34087-.6493-1.44931-1.3894-.40942-2.7943-.40942-5.6333 0-8.42756L6.05037 8.75H7.25Z" fill="#3A3A3A"/></svg>